<svg xmlns="http://www.w3.org/2000/svg" width="419" height="52">
    <path fill="#064545" fill-rule="evenodd" d="M414.461 37.75c1.4 0 2.744-.168 3.696-.336v3.248c-1.12.224-2.912.448-4.48.448-4.872 0-6.72-2.464-6.72-7.503V16.359h-5.32v-3.472h5.348l.532-8.064h3.36v8.064h7.28v3.472h-7.28v16.8c0 3.415.336 4.591 3.584 4.591zm-20.457-1.035c-2.408 2.603-5.656 4.507-9.52 4.507-5.376 0-8.847-2.744-8.847-8.063 0-5.88 4.591-8.512 10.751-8.512h7.336v-2.8c0-3.332-1.512-6.216-6.608-6.216-3.696 0-6.44 1.344-6.44 4.424h-3.92c0-5.04 4.312-7.728 10.472-7.728 7.224 0 10.416 3.64 10.416 9.576v18.759h-3.36l-.28-3.947zm-.28-8.596h-6.944c-3.696 0-7.167 1.12-7.167 5.04 0 3.079 1.847 4.759 5.431 4.759 3.64 0 6.888-2.632 8.68-5.319v-4.48zm-30.742-7.812c-4.313 0-6.272 2.828-6.272 7.364v12.991h-7.896V12.327h7l.364 4.452c1.119-2.996 3.78-5.18 7.083-5.18.672 0 1.177.056 1.764.14l-.7 8.568h-1.343zm-31.27 15.147c2.855 0 4.479-1.456 4.479-4.031h7.784c0 4.368-2.408 9.967-12.291 9.967-9.436 0-12.992-5.236-12.992-14.895 0-11.004 5.544-14.896 13.132-14.896 7.7 0 12.431 4.032 12.431 14.364v2.548H326.7c.168 4.899 1.708 6.943 5.012 6.943zm4.648-11.927c-.141-3.808-1.457-5.992-4.648-5.992-2.996 0-4.704 1.848-4.984 5.992h9.632zm-29.916-.252c0-3.136-.98-4.62-3.332-4.62-1.736 0-3.612.98-5.04 2.184v19.823h-7.896V12.327h7.112l.336 3.024c2.296-2.072 5.572-3.696 8.792-3.696 5.74 0 7.924 3.528 7.924 8.96v20.047h-7.896V23.275zm-29.668 0c0-3.136-.98-4.62-3.332-4.62-1.736 0-3.612.98-5.04 2.184v19.823h-7.896V.903h7.896v10.948c0 .924-.056 2.128-.14 3.22 2.268-1.932 5.404-3.416 8.484-3.416 5.824 0 7.924 3.528 7.924 8.96v20.047h-7.896V23.275zm-32.581 12.067c2.66 0 4.116-1.595 4.116-4.983h7.784c0 5.432-2.464 11.031-12.012 11.031-9.212 0-12.712-5.236-12.712-14.839 0-9.828 4.032-14.952 12.964-14.952 9.212 0 11.76 5.572 11.76 11.032h-7.784c0-3.36-1.512-4.984-4.172-4.984-3.444 0-4.76 2.632-4.76 8.764 0 6.411 1.512 8.931 4.816 8.931zm-28.75.112c2.856 0 4.48-1.456 4.48-4.031h7.784c0 4.368-2.408 9.967-12.292 9.967-9.435 0-12.992-5.236-12.992-14.895 0-11.004 5.544-14.896 13.132-14.896 7.7 0 12.432 4.032 12.432 14.364v2.548h-17.556c.168 4.899 1.708 6.943 5.012 6.943zm4.648-11.927c-.14-3.808-1.456-5.992-4.648-5.992-2.996 0-4.704 1.848-4.984 5.992h9.632zm-21.901-3.22c-4.312 0-6.272 2.828-6.272 7.364v12.991h-7.896V12.327h7l.364 4.452c1.12-2.996 3.78-5.18 7.084-5.18.672 0 1.176.056 1.764.14l-.7 8.568h-1.344zm-24.471 20.971c-6.02 0-8.26-3.276-8.26-9.463V18.683h-4.48v-6.356h4.508l1.204-8.064h6.664v8.064h6.328v6.356h-6.328v12.152c0 2.968.532 3.807 3.388 3.807 1.036 0 2.128-.083 2.94-.195v6.215c-1.4.308-3.64.616-5.964.616zm-24.119-18.003c0-3.136-.98-4.62-3.332-4.62-1.736 0-3.612.98-5.04 2.184v19.823h-7.896V12.327h7.112l.336 3.024c2.296-2.072 5.572-3.696 8.792-3.696 5.74 0 7.924 3.528 7.924 8.96v20.047h-7.896V23.275zm-33.37 12.179c2.856 0 4.48-1.456 4.48-4.031h7.784c0 4.368-2.408 9.967-12.292 9.967-9.436 0-12.992-5.236-12.992-14.895 0-11.004 5.544-14.896 13.132-14.896 7.7 0 12.432 4.032 12.432 14.364v2.548H111.22c.168 4.899 1.708 6.943 5.012 6.943zm4.648-11.927c-.14-3.808-1.456-5.992-4.648-5.992-2.996 0-4.704 1.848-4.984 5.992h9.632zM77.469 34.586l13.216-15.791H77.609v-6.468h22.512v6.076l-13.3 15.792h13.44v6.467H77.469v-6.076zM61.504 41.39c-9.52 0-12.964-5.292-12.964-14.811 0-9.548 3.78-14.98 13.076-14.98 9.492 0 12.936 5.292 12.936 14.812 0 9.519-3.808 14.979-13.048 14.979zm.084-23.799c-3.696 0-5.04 2.464-5.04 8.904 0 6.44 1.344 8.903 5.04 8.903 3.64 0 4.956-2.463 4.956-8.903s-1.288-8.904-4.956-8.904zm-17.309 2.716c-4.312 0-6.272 2.828-6.272 7.364v12.991h-7.896V12.327h7l.364 4.452c1.12-2.996 3.78-5.18 7.084-5.18.672 0 1.176.056 1.764.14l-.7 8.568h-1.344zM15.238 41.334c-2.744 0-5.18-1.12-7.168-2.744.056.924.084 1.876.084 2.688v10.36H.258V12.327h6.888l.392 2.716c2.156-1.988 4.928-3.388 8.092-3.388 6.58 0 9.772 4.144 9.772 14.56 0 9.995-3.192 15.119-10.164 15.119zm-2.324-22.987c-1.624 0-3.36.84-4.76 1.988v12.46c1.4 1.091 3.08 1.876 4.676 1.876 3.332 0 4.48-2.688 4.48-8.204 0-5.376-1.26-8.12-4.396-8.12z"/>
    <path fill="#FC6025" fill-rule="evenodd" d="M367.64 41.278c1.988 0 3.528-1.54 3.528-3.5 0-1.987-1.54-3.5-3.528-3.5s-3.528 1.513-3.528 3.5c0 1.96 1.54 3.5 3.528 3.5z"/>
</svg>
