<svg xmlns="http://www.w3.org/2000/svg" width="375" height="48">
    <path fill="#373F47" fill-rule="evenodd" d="M368.933 44.231c1.801 0 3.902-.538 5.462-1.316l.6 1.316c-2.04 2.213-5.162 3.767-9.123 3.767-4.142 0-7.143-1.973-7.143-7.056V18.874h-4.441V17.08c3.061-1.913 5.702-4.365 8.343-8.193h1.56v6.818h9.184v3.169h-9.184v20.931c0 3.29 1.441 4.426 4.742 4.426zm-20.468 3.767c-3.061 0-4.562-2.212-5.102-5.442-2.161 2.452-5.582 5.442-10.024 5.442-5.462 0-7.983-3.707-7.983-8.073 0-5.562 4.442-7.475 8.343-8.851l9.484-3.409v-2.93c0-3.588-1.261-6.758-5.942-6.758-3.242 0-4.922 1.376-4.922 4.426 0 1.016.12 1.913.42 3.11l-4.502.598c-.84-.838-1.26-1.795-1.26-3.23 0-4.904 4.862-7.774 11.404-7.774 6.903 0 10.384 3.528 10.384 10.047 0 1.973-.18 12.319-.18 14.831 0 2.631 1.02 4.066 2.761 4.066.54 0 1.921-.119 2.821-.358l.3 1.435c-2.041 2.033-3.901 2.87-6.002 2.87zm-5.282-17.582l-8.523 3.23c-2.221.837-3.662 2.571-3.662 4.844 0 3.409 1.741 5.322 4.802 5.322 2.821 0 4.862-.837 7.383-2.691V30.416zm-25.09 17.582c-2.281 0-4.141-1.853-4.141-4.126 0-2.272 1.86-4.126 4.141-4.126 2.281 0 4.142 1.854 4.142 4.126 0 2.273-1.861 4.126-4.142 4.126z" opacity=".6"/>
    <path fill="#5E859F" fill-rule="evenodd" d="M298.292 47.848h-2.057l.182-5.672c-2.48 3.68-5.746 5.672-9.799 5.672-7.137 0-12.218-5.552-12.218-15.388 0-11.769 7.137-18.106 16.029-18.106 2.48 0 4.597.663 5.988 1.81V6.266l-3.327-1.688V2.767l12.642-2.776h1.875v40.313c0 2.053.121 2.958 2.056 3.018l1.452.06v2.354l-12.823 2.112zm-1.875-23.898c0-4.043-1.149-6.216-4.295-6.216-4.294 0-6.532 4.526-6.532 11.345 0 7.423 2.661 12.492 7.379 12.492 1.21 0 2.359-.241 3.448-.844V23.95zm-34.355 1.75v15.931c0 2.597 1.391 2.836 4.839 3.26v2.354h-19.355v-2.354c2.419-.181 3.387-.424 3.387-2.354V21.355l-3.327-2.052v-1.69l12.642-3.501h2.056l-.242 9.294c2.48-7.06 4.597-9.294 8.408-9.294 1.391 0 2.419.424 3.024 1.026v8.389h-1.452c-3.81 0-7.198.121-9.98 2.173zm-23.044 22.148c-3.508 0-6.048-1.871-6.955-5.07-1.755 2.535-4.658 4.888-9.134 4.888-5.081 0-8.649-2.896-8.649-8.087 0-5.25 3.689-7.422 7.984-8.931l9.617-3.379v-6.156c0-2.776-.786-4.647-3.145-4.647s-3.266 1.932-3.266 4.768c0 1.388.242 2.776.544 4.224l-6.714.905c-1.754-.603-2.964-2.052-2.964-4.225 0-5.491 5.686-8.026 13.005-8.026 8.468 0 13.548 2.656 13.548 10.5v15.994c0 1.448.182 2.716 1.634 2.716.846 0 1.633-.181 2.056-.362l.423 1.629c-1.995 1.992-4.596 3.259-7.984 3.259zm-7.137-17.985l-3.327 1.267c-2.117.785-3.508 1.932-3.508 5.372 0 3.077 1.149 5.371 4.174 5.371.967 0 1.693-.302 2.661-.844V29.863zm-34.476 14.786c5.021 0 8.892-3.56 11.311-12.734h3.024l-1.028 12.01c-3.508 2.475-8.891 3.923-14.819 3.923-13.791 0-22.319-7.906-22.319-20.639 0-14.183 10.282-22.934 22.863-22.934 5.444 0 10.041 1.268 13.489 3.561l.181 10.562h-2.964c-1.512-7.182-4.717-11.105-10.343-11.105-7.56 0-10.706 8.026-10.706 18.226 0 11.043 3.871 19.13 11.311 19.13zm-43.064.242c2.419-.181 3.205-.424 3.205-2.354V24.915c0-2.655-.907-4.224-4.052-4.224-1.936 0-3.629.543-5.202 1.327v20.519c0 1.93.847 2.173 3.266 2.354v2.354h-17.782v-2.354c2.419-.181 3.387-.424 3.387-2.354V21.355l-3.327-2.052v-1.69l12.642-3.501h2.056l-.242 6.035c2.299-2.895 5.807-6.035 11.251-6.035 5.867 0 9.193 3.26 9.193 9.898v18.527c0 1.93.968 2.173 3.388 2.354v2.354h-17.783v-2.354zm-40.162 0c2.419-.181 3.387-.424 3.387-2.354V21.355l-3.327-2.052v-1.69l12.581-3.501h1.875v28.425c0 1.93.968 2.173 3.387 2.354v2.354h-17.903v-2.354zm9.072-33.433c-3.75 0-5.927-2.597-5.927-5.613 0-3.018 2.177-5.553 5.927-5.553 3.63 0 5.928 2.535 5.928 5.553 0 3.016-2.298 5.613-5.928 5.613zm-20.322 36.39c-5.565 0-9.436-2.777-9.436-9.897V17.974h-3.447v-1.99c4.838-1.811 9.193-5.312 12.339-9.476h2.359v8.208h7.076v3.258h-7.076v19.977c0 2.896 1.149 4.163 3.447 4.163 1.573 0 2.904-.543 4.355-1.508l.908 1.328c-2.299 3.742-5.686 5.914-10.525 5.914zm-12.338-3.259c-1.996 1.992-4.597 3.259-7.984 3.259-3.508 0-6.048-1.871-6.956-5.07-1.754 2.535-4.657 4.888-9.133 4.888-5.081 0-8.65-2.896-8.65-8.087 0-5.25 3.69-7.422 7.984-8.931l9.618-3.379v-6.156c0-2.776-.786-4.647-3.145-4.647s-3.267 1.932-3.267 4.768c0 1.388.242 2.776.545 4.224l-6.714.905c-1.754-.603-2.964-2.052-2.964-4.225 0-5.491 5.686-8.026 13.004-8.026 8.468 0 13.549 2.656 13.549 10.5v15.994c0 1.448.182 2.716 1.633 2.716.847 0 1.633-.181 2.057-.362l.423 1.629zM75.47 29.863l-3.327 1.267c-2.117.785-3.508 1.932-3.508 5.372 0 3.077 1.149 5.371 4.173 5.371.968 0 1.694-.302 2.662-.844V29.863zM38.635 44.891c2.42-.181 3.387-.424 3.387-2.354V6.266l-3.326-1.688V2.767L51.337-.009h1.875v42.546c0 1.93.968 2.173 3.387 2.354v2.354H38.635v-2.354zM20.43 30.889h-4.174v9.595c0 3.199 1.633 3.924 7.016 4.226v2.535H-.015V44.71c4.053-.423 4.416-.906 4.416-4.044V11.458c0-3.139-.363-3.622-4.416-4.044V4.879h20.928c11.795 0 17.239 5.491 17.239 12.794 0 8.328-5.746 13.216-17.722 13.216zM17.647 7.715h-1.391v20.037h1.391c5.807 0 8.892-3.862 8.892-10.079 0-6.215-3.448-9.958-8.892-9.958z"/>
</svg>
